<?xml version="1.0" encoding="UTF-8" standalone="no"?>
<!-- Created with Inkscape (http://www.inkscape.org/) -->

<svg
   version="1.1"
   viewBox="0 0 339.52344 130.14069"
   id="svg11"
   sodipodi:docname="logo_content.svg"
   width="339.52344"
   height="130.14069"
   inkscape:version="1.3.2 (091e20e, 2023-11-25, custom)"
   xmlns:inkscape="http://www.inkscape.org/namespaces/inkscape"
   xmlns:sodipodi="http://sodipodi.sourceforge.net/DTD/sodipodi-0.dtd"
   xmlns="http://www.w3.org/2000/svg"
   xmlns:svg="http://www.w3.org/2000/svg">
  <defs
     id="defs11" />
  <sodipodi:namedview
     id="namedview11"
     pagecolor="#ffffff"
     bordercolor="#666666"
     borderopacity="1.0"
     inkscape:showpageshadow="true"
     inkscape:pageopacity="0.0"
     inkscape:pagecheckerboard="0"
     inkscape:deskcolor="#d1d1d1"
     showborder="true"
     borderlayer="true"
     labelstyle="default"
     inkscape:zoom="1.85"
     inkscape:cx="172.43243"
     inkscape:cy="73.783784"
     inkscape:window-width="1920"
     inkscape:window-height="991"
     inkscape:window-x="2391"
     inkscape:window-y="-9"
     inkscape:window-maximized="1"
     inkscape:current-layer="svg11" />
  <path
     d="m 162.94727,-0.766 c 0.33,-0.063 0.81,-0.061 1.1,0.005 0.25,0.066 -0.016,0.12 -0.6,0.12 -0.58,-0.003 -0.79,-0.057 -0.46,-0.12 z"
     id="path2" />
  <path
     d="m 158.94727,-0.766 c 0.33,-0.063 0.86,-0.063 1.2,0 0.33,0.063 0.06,0.11 -0.6,0.11 -0.65,0 -0.92,-0.052 -0.6,-0.11 z"
     id="path3" />
  <path
     d="m 149.94727,-0.766 c 0.19,-0.19 5.8,-0.19 6,-0.006 0.08,0.08 -1.3,0.15 -3,0.15 -1.7,0 -3.1,-0.063 -3,-0.14 z"
     id="path4" />
  <path
     d="m 78.947271,121.234 c 1.5,-0.047 3.9,-0.047 5.4,0 1.5,0.047 0.27,0.086 -2.7,0.086 -2.97,0 -4.2,-0.039 -2.7,-0.086 z"
     id="path10" />
  <g
     id="g11"
     transform="translate(42.947271,-52.766)"
     style="fill:#0015ff;fill-opacity:1">
    <path
       d="m 230,121 c -4,5.4 -8,11 -10,14 -5.2,5.2 -13,17 -17,23 l -18,24 h 3.6 c 1.7,0 5.6,0.011 8.9,0 h 4.6 c 2,-2.7 5.5,-7.4 7.7,-10 1.1,-1.5 2,-2.7 3.3,-4.4 h 10 c 3.8,0 4.5,0.062 7.7,0.022 2.7,-0.033 7.2,-0.77 10,-1.7 1.8,-0.56 3.5,-1.5 4.8,-2.2 1.8,-1.1 2,-1.2 3.3,-2.2 1.7,-1.2 3.3,-2.8 5.6,-5.4 0.61,-0.69 1.9,-2.5 2.3,-3.1 0.52,-0.69 0.77,-1.1 1.4,-2 0.41,-0.55 1.4,-2.1 1.7,-2.5 0.3,-0.4 1.6,-2.8 1.8,-3.3 1.3,-3.1 1.8,-4.8 2,-7.4 0.19,-2.4 0.24,-2.9 0.081,-4.7 -0.14,-1.6 -0.23,-2.8 -0.97,-4.7 -0.75,-1.9 -1.6,-2.9 -3.7,-4.5 -0.25,-0.19 -2.4,-2.2 -13,-2.2 h -17 z m 12,14 c 6.3,0 6,0.73 6.4,1.6 0.38,0.92 -0.17,2.4 -0.67,3.4 -0.79,1.5 -0.74,1.7 -1.6,3.1 -0.93,1.6 -1.8,2.8 -2.6,3.8 -1,1.3 -2.2,2.3 -3.4,3.3 -1.1,0.99 -4.1,2.3 -5.6,2.5 -3,0.51 -4.2,0.54 -8.5,0.5 -0.6,-0.005 -2.5,-0.14 -2.5,-0.14 1.3,-1.8 4.3,-5.8 7.4,-10 2.1,-2.8 0.015,-0.02 4.1,-5.5 0.75,-1 1.2,-1.7 2,-2.7 z"
       id="path1"
       style="fill:#0015ff;fill-opacity:1" />
    <path
       d="m 218,112 c 0,0 -7.6,-0.021 -9.6,-0.021 -0.58,0 -1.1,-3.1 -3.3,-6.1 -3.3,-4.5 -6.2,-7.1 -11,-9.9 -0.95,-0.59 -2.2,-1.4 -2.8,-1.7 -3.3,-2.1 -12,-6.5 -19,-9 -2.3,-0.89 -4.4,-1.7 -4.7,-1.9 -0.3,-0.13 -1.5,-0.56 -2.8,-0.95 -1.2,-0.39 -2.6,-0.87 -3,-1.1 -0.45,-0.19 -2.1,-0.75 -3.7,-1.2 -1.6,-0.45 -4.1,-1.3 -5.6,-1.8 -1.5,-0.48 -3.2,-0.96 -3.7,-1.1 -0.53,-0.1 -1.5,-0.35 -2.1,-0.54 -0.61,-0.2 -2.2,-0.63 -3.4,-0.95 -1.3,-0.32 -3.1,-0.81 -4.1,-1.1 -4.3,-1.2 -8.7,-2.2 -16,-3.6 -7.1,-1.4 -9.5,-1.9 -13,-2.5 -2.2,-0.38 -4.2,-0.74 -4.4,-0.81 -0.23,-0.069 -2.5,-0.43 -5,-0.8 -2.5,-0.37 -6,-0.92 -7.8,-1.2 -5.5,-0.89 -8.7,-1.4 -11,-1.5 -0.98,-0.091 -2.2,-0.27 -2.8,-0.4 -0.6,-0.13 -2.1,-0.36 -3.6,-0.52 -2.9,-0.32 -8.1,-0.9 -13,-1.5 -1.9,-0.22 -4.8,-0.53 -6.5,-0.68 -1.7,-0.15 -4.1,-0.4 -5.4,-0.53 -1.3,-0.14 -4.7,-0.44 -7.6,-0.67 -2.9,-0.23 -6.4,-0.54 -7.8,-0.68 -1.4,-0.14 -3.6,-0.32 -4.8,-0.4 -1.2,-0.076 -4.9,-0.32 -8.3,-0.53 -3.3,-0.22 -7.4,-0.46 -8.9,-0.55 -1.6,-0.085 -5,-0.28 -7.6,-0.43 -6.8,-0.41 -13,-0.79 -21,-1.6 -4.1,-0.39 -9.6,-1.3 -9.9,-1.4 -0.3,-0.11 5.3,-0.73 10,-0.83 4.7,-0.1 10,-0.17 15,-0.21 8.4,-0.079 68,1.2 76,1.6 3.5,0.18 9.4,0.44 13,0.59 6.9,0.27 16,0.85 22,1.3 1.7,0.15 5.5,0.46 8.5,0.68 3,0.23 6.4,0.53 7.6,0.68 1.1,0.15 4.5,0.51 7.4,0.8 13,1.3 24,2.7 30,3.8 2.8,0.49 8.4,1.4 14,2.3 6,0.98 12,2.1 20,3.9 1.2,0.28 3.4,0.77 5,1.1 4.8,1 7.6,1.7 20,4.8 2.9,0.74 6.1,1.6 7.2,1.9 1.1,0.32 2.4,0.7 3,0.84 1.1,0.26 4.5,1.3 6.9,2 0.76,0.24 7.4,2.4 8.8,2.8 l -7.8,11 c -0.22,0.29 -1.9,2.6 -3.6,4.9 0,0 3.7,-0.02 10,0 0.66,0.002 4.6,0 7.2,0 9.4,0 13,-4.9 20,-14 3.5,-4.6 7.1,-14 3.1,-16 -2.6,-1.8 -4.1,-1.6 -9.3,-1.6 -2.4,0.016 -7.8,0.067 -7.8,0.067 -1.5,2 -5.3,7.5 -6.5,9.1 -3.5,4.5 -2.8,3.9 -6.5,2.9 -3.6,-1 -16,-4 -18,-4.5 -2.1,-0.54 -4.1,-1.1 -4.4,-1.3 -0.38,-0.15 -4.3,-1.2 -8.8,-2.3 -4.5,-1.1 -8.5,-2.1 -8.9,-2.3 -0.4,-0.2 -2.1,-0.56 -3.7,-0.92 -1.6,-0.36 -4,-0.91 -5.4,-1.2 -1.4,-0.31 -3.4,-0.75 -4.6,-0.97 -1.2,-0.22 -2.3,-0.47 -2.4,-0.56 -0.22,-0.14 -6.6,-1.4 -10,-2 -1.7,-0.31 -3.1,-0.59 -6.6,-1.3 -3.7,-0.78 -15,-2.5 -24,-4 -1.4,-0.21 -3.4,-0.5 -4.3,-0.65 -0.91,-0.15 -2.8,-0.39 -4.1,-0.53 -1.4,-0.14 -4,-0.44 -5.8,-0.66 -4.6,-0.56 -11,-1.3 -13,-1.4 -0.76,-0.056 -2.4,-0.23 -3.7,-0.39 -1.3,-0.16 -4.2,-0.45 -6.5,-0.65 l -4.1,-0.36 7.2,0.1 c 3.9,0.056 9.1,0.22 12,0.37 2.4,0.15 7.4,0.38 11,0.53 14,0.53 25,1.1 30,1.6 1.4,0.14 4.5,0.4 6.7,0.56 6.1,0.45 12,1 15,1.3 1.1,0.14 3.8,0.46 6.2,0.7 8.5,0.88 11,1.2 18,2 2.2,0.29 5.8,0.73 8,0.96 2.2,0.23 4,0.47 4.1,0.52 0.084,0.051 1.4,0.23 2.9,0.4 1.5,0.17 3.7,0.49 5,0.7 3.1,0.55 11,1.1 11,0.66 0.46,-0.38 0.36,-0.99 -0.12,-0.69 -1.5,-0.55 -7.1,-1.7 -8.7,-2.1 -1.1,-0.23 -4.2,-1.1 -5.8,-1.5 -1.6,-0.37 -3.2,-0.69 -4.2,-0.89 -9,-1.7 -14,-2.3 -15,-2.6 -1.2,-0.28 -28,-2.6 -28,-2.6 0,0 28,2e-5 42,2e-5 h 27 c 2.6,0 10,0.008 18,0.39 4.3,0.21 7.6,0.5 9.8,0.9 1.4,0.26 4.9,0.84 8.7,2.6 1.5,0.69 3.1,2.2 3.6,3 1.5,2.3 1.9,4.1 2.3,6.6 0.34,2.1 0.2,5.2 -0.13,7 -0.4,2.1 -1.2,3.5 -2.1,5.4 -1.6,3.5 -4.5,8.1 -8.3,13 -1.4,1.8 -3.9,5 -7.1,8.7 -3.3,3.8 -12,10 -19,11 -3.1,0.25 -11,0.46 -19,0.55 -6.9,0.086 -13,0.047 -13,0.047 z"
       id="path5"
       style="fill:#0015ff;fill-opacity:1" />
    <path
       d="m 122,135 c 0.99,-1.3 4,-5.4 4.8,-6.5 1.5,-2 2.5,-3.4 4,-5.4 1.8,-2.5 3.4,-4.5 5.3,-7.1 1.3,-1.8 2.4,-3.2 3.7,-5 1.4,-1.9 2.6,-3.4 4,-5.4 2.8,-3.7 3.2,-4.3 5.1,-6.8 1.6,-2.2 2.9,-4 4.7,-6.3 1.3,-1.8 3.1,-4.1 3.1,-4.1 2,0.65 2.5,0.83 3.8,1.3 1.3,0.47 2.4,0.78 5,1.7 2.4,0.91 2.8,1 5.1,2.1 0,0 -0.94,1.2 -1.9,2.5 -1.2,1.6 -1.5,2.1 -1.5,2.1 4.9,0 8.9,1e-5 14,-5e-5 0.36,0 2.5,1 4.7,2.3 2.5,1.4 4.9,3.1 4.9,3.1 l -2.6,3.6 c -2,2.6 -3.7,5.1 -3.7,5.1 -3.5,0.021 -12,0.021 -15,0.021 -4.2,0 -7.6,0 -12,-0.021 -0.96,1.3 -2.6,3.5 -3.5,4.8 -1.2,1.6 -2.1,2.8 -3.3,4.4 0,0 7.7,0.023 17,0.015 17,-0.015 12,-0.015 17,-0.015 0,0 -4.3,5.8 -7.3,9.8 -0.16,0.22 -1.7,2.3 -3,4 h -22 c -9,-8e-5 -20,-8e-5 -22,-8e-5 -2.4,0 -6.8,8e-5 -6.8,8e-5 z"
       id="path6"
       style="fill:#0015ff;fill-opacity:1" />
    <path
       d="m 85,135 c -9.3,0 -16,0.025 -18,0 3.9,-5.2 7.5,-10 12,-16 4,-5.3 11,-15 16,-21 2.1,-2.9 11,-14 13,-17 1,-1.4 2.3,-3.2 2.8,-3.9 0,0 0.26,0.12 1.5,0.28 5.8,1.2 12,2.3 17,3.5 5.6,1.4 8.2,1.9 12,2.9 2.9,0.73 4.8,1.2 4.8,1.2 -1.2,1.7 -2.3,3.1 -2.9,4 h -13 c -5.7,-0.001 -7.5,0 -11,0 0,0 -2.2,3 -3.7,5 -2,2.6 -3.2,4.4 -3.2,4.4 2.3,-10e-6 4.9,-10e-6 5.5,-10e-6 h 11 c 3,0 5.2,1.8e-4 7.1,10e-6 l -2.6,3.6 c -1.6,2.2 -3.2,4.3 -4.9,6.6 -1.1,1.5 -1.4,1.9 -2.9,3.9 0,0 -5.3,0.021 -8.7,0.021 -10,0 -3.7,0 -15,-0.021 l -6.8,9.2 c 0,0 1.9,-0.06 15,0 l 14,0.067 -0.45,0.68 c -0.24,0.37 -0.6,0.83 -0.8,1.1 -1.7,2.3 -3,4 -4.5,6 -0.61,0.82 -1.3,1.8 -4.5,6 l -6.3,-0.025 c -7.6,-0.03 -15,-0.031 -23,0 z"
       id="path7"
       style="fill:#0015ff;fill-opacity:1" />
    <path
       d="m 59,76 h -8.3 c 0,0 -1.1,1.5 -2.2,3 -1.3,1.7 -2.5,3.5 -3.8,5.2 -1.8,2.5 -3.9,5.3 -5.7,7.7 -1.5,2.1 -3.2,4.3 -3.3,4.5 -1.5,2.1 -2.8,3.7 -4.1,5.6 -1.7,2.4 -2.8,3.8 -4.8,6.5 -2.4,3.2 -4.1,5.6 -6.5,8.8 -2.1,2.8 -4.2,5.7 -5.4,7.3 -1,1.3 -2.1,3 -3.2,4.3 -1.5,1.9 -3.1,4 -4.4,6 -0.11,0.16 3.2,0.033 9.2,0.044 l 8.8,0.017 1,-1.4 c 0.64,-0.87 0.72,-0.97 1.5,-2 0.47,-0.64 1.9,-2.5 3,-4 1,-1.4 2.7,-3.7 3.5,-4.7 0.47,-0.63 0.95,-1.3 1.6,-2.1 1.2,-1.6 0.7,-1.4 2.6,-1.2 0.055,0.004 5.8,0.36 8.4,0.22 1.6,-0.089 1.9,0.019 4.1,-0.29 2.7,-0.37 4.8,-0.76 6.1,-1.2 0.73,-0.22 1.9,-0.58 2.6,-0.8 2.2,-0.67 4.9,-1.9 5.4,-2.1 1.8,-0.9 3.5,-1.7 6.8,-3.8 1.4,-0.95 3.1,-2.2 4.7,-3.4 0.72,-0.58 2.4,-2.2 2.9,-2.8 0.85,-0.67 1.9,-2.1 3.1,-3.5 0.75,-0.89 1.4,-1.6 3.9,-5.3 0.63,-0.95 0.65,-1.3 1,-1.9 1.5,-2.6 2.4,-5.8 2.7,-8.3 0.17,-1.3 0.13,-2.7 -0.44,-4.2 -0.59,-1.5 -1.5,-3.1 -4.2,-4.3 -2.7,-1.2 -4.1,-1.3 -7.5,-1.6 z m 8.3,13 c 1.6,0.25 3.5,1.3 2.3,5.2 -0.94,3.3 -2.6,4.6 -2.9,4.9 -2.1,2.3 -3.6,3.6 -6.1,5.2 -1,0.68 -1.2,0.76 -2.4,1.3 -2.1,0.66 -3.9,1.1 -5.8,1.2 -2.2,0.091 -3.1,0.071 -5.2,0.02 -1.1,0.012 -0.92,-0.33 0.36,-2.1 l 4.5,-6.1 c 1,-1.4 1.9,-2.5 2.7,-3.7 1.2,-1.7 4.5,-6.3 4.7,-6.3 4.5,-0.006 5.3,0 7.8,0.3 z"
       id="path8"
       style="fill:#0015ff;fill-opacity:1" />
    <path
       d="m -23,135 c -0.8,-0.056 -0.47,-0.003 -1.5,-0.052 -0.77,-0.038 -1.3,-0.088 -1.9,-0.14 -0.21,-0.015 -0.66,-0.099 -1.3,-0.18 -1.6,-0.19 -4,-0.71 -5.8,-1.9 -0.51,-0.33 -1.4,-0.82 -2.4,-2.5 -0.6,-1 -1.1,-2.2 -0.98,-4.2 0.11,-2.4 0.41,-2.8 1.5,-5 1.4,-2.8 1.4,-2.7 4.9,-3.4 1.7,-0.33 3.6,-0.66 4.1,-0.73 0.57,-0.067 2.7,-0.46 4.7,-0.87 2,-0.41 3.7,-0.69 3.9,-0.61 0.13,0.076 -0.02,0.61 -0.33,1.2 -0.31,0.58 -0.72,1.2 -0.81,1.5 -0.42,1.3 -0.27,1.9 0.23,3 0.23,0.52 0.63,0.94 1.6,1.3 1.3,0.48 2,0.37 3.1,0.22 2.2,-0.32 4.2,-1.1 6,-2.4 0.62,-0.46 1.1,-0.88 1.8,-1.8 0.6,-0.79 0.85,-1.8 0.86,-2.3 0.009,-0.36 -0.096,-1 -0.3,-1.4 -0.2,-0.37 -0.43,-0.78 -0.68,-1.1 -0.62,-0.67 -1.4,-1.1 -2.7,-1.8 -1.8,-0.94 -2.6,-1.3 -4.6,-2.6 -1.1,-0.75 -2.2,-1.5 -2.9,-2.2 -0.35,-0.4 -0.75,-0.93 -0.85,-1.1 -0.63,-1 -0.91,-1.3 -1.3,-2.9 -0.33,-1.3 0.13,-4.1 0.6,-5.2 0.16,-0.37 0.57,-1.1 0.9,-1.7 0.96,-1.6 1.6,-2.9 2.7,-4.3 1.5,-1.9 2.9,-3.4 4.7,-5.1 1.1,-1.1 2.3,-2.2 2.7,-2.5 0.39,-0.28 0.76,-0.61 1.2,-0.93 1.2,-0.86 2.7,-1.8 4.1,-2.6 1.3,-0.84 3.9,-2 4.2,-2.2 0.66,-0.25 1,-0.45 1.8,-0.73 1.7,-0.6 2.4,-0.78 3.8,-1.1 1.9,-0.45 7.4,-1.3 11,-1.5 2.1,-0.083 2.2,-0.074 4.3,0.009 0.5,0.02 1.6,0.18 2.4,0.33 1.8,0.32 4.4,1.5 5.9,2.8 0.92,0.83 1.3,1.5 1.9,2.4 1.1,1.6 0.91,4.1 -1.2,8.5 l -0.95,1.9 -2.1,0.16 c -1.4,0.1 -1.6,0.13 -2.4,0.22 -0.93,0.099 -1.4,0.14 -2.3,0.24 -0.99,0.11 -1.8,0.2 -2.4,0.31 -1.5,0.25 -2.3,0.31 -3.4,0.51 -2.2,0.4 -3.7,0.68 -3.4,-0.28 0.16,-0.44 0.35,-0.96 0.4,-1.8 0.067,-1.1 0.081,-1.5 -0.7,-2.1 -1.3,-1 -4.3,-1.1 -5.3,-0.83 -0.17,0.043 -1.2,0.29 -1.9,0.64 -1.7,0.92 -2.6,1.9 -3.2,2.6 -0.62,0.72 -0.98,1.3 -1.1,1.7 -0.1,0.35 -0.13,0.63 -0.18,1.1 -0.043,0.36 -0.14,0.84 0.21,1.7 0.56,1.4 1,1.8 2.1,2.4 0.57,0.29 1.3,0.57 2.1,0.99 0.82,0.42 1.5,0.7 1.8,0.88 0.38,0.21 1,0.55 1.6,0.91 0.46,0.32 0.57,0.39 1.1,0.77 0.49,0.37 0.97,0.77 1.7,1.5 0.56,0.56 0.85,0.8 1.3,1.5 0.79,1.3 1.5,4.5 0.9,6.7 -0.53,1.9 -2.3,5.1 -3,6.2 -0.38,0.63 -0.6,0.93 -1,1.5 -0.68,0.92 -1.4,1.7 -2.2,2.6 -2.1,2.2 -4.6,4.3 -7.2,6.1 -0.83,0.6 -1.2,0.88 -1.9,1.3 -0.52,0.38 -0.86,0.52 -1.1,0.68 -0.4,0.28 -1.1,0.55 -1.3,0.65 -0.55,0.33 -1.4,0.71 -2.6,1.2 -0.79,0.36 -1.3,0.65 -2,0.91 -0.83,0.29 -1.4,0.48 -2.2,0.72 -0.82,0.27 -1.7,0.47 -2.5,0.71 -0.47,0.15 -1,0.25 -1.9,0.44 -1.4,0.32 -4.6,0.6 -6,0.69 -2,0.14 -2.1,0.14 -4,0.15 z"
       style="fill:#0015ff;stroke-width:0.97;fill-opacity:1"
       id="path9" />
    <path
       d="m 149,182 c -3.4,-0.98 -6.3,-2.5 -8.7,-4.7 -1.8,-1.7 -1.2,-1.4 -18,-1.6 -6.6,-0.083 -20,-0.34 -31,-0.56 -10,-0.23 -24,-0.45 -30,-0.5 -6.5,-0.05 -13,-0.1 -15,-0.11 -1.8,-0.013 -2.8,-0.11 -2.5,-0.25 0.39,-0.22 16,-0.76 29,-0.97 3.5,-0.058 11,-0.23 16,-0.38 5,-0.15 14,-0.39 20,-0.54 5.5,-0.15 12,-0.39 14,-0.53 2,-0.14 5.4,-0.25 6.9,-0.25 6.8,-0.002 8.4,-0.048 8.3,-2.7 -0.041,-1.3 -0.57,-1.9 -4.5,-2.1 -9.9,-0.49 -81,-1.7 -108,-1.8 -2.5,-0.011 -5.4,-0.11 -6.5,-0.22 l -2,-0.2 2.7,-0.039 c 1.5,-0.021 9.8,-0.21 18,-0.42 8.6,-0.21 19,-0.45 23,-0.52 4,-0.077 9.7,-0.2 13,-0.28 12,-0.32 33,-0.71 38,-0.7 2.5,0.01 5.6,-0.091 6.9,-0.22 1.2,-0.13 6.4,-0.32 11,-0.43 5.9,-0.12 7.7,-0.16 8.1,-0.35 0.71,-0.35 1.9,-0.98 2,-1.8 0.049,-0.84 0.39,-1.6 -0.39,-2.1 -0.51,-0.32 -12,-0.77 -29,-1 -14,-0.19 -56,-0.88 -72,-1.2 -7.7,-0.14 -19,-0.34 -26,-0.44 -15,-0.22 -21,-0.53 -11,-0.62 3.3,-0.032 8,-0.1 10,-0.15 3.8,-0.085 13,-0.21 43,-0.55 11,-0.12 59,-0.87 68,-1 3.7,-0.075 8.4,-0.25 11,-0.39 2.6,-0.14 4.8,-0.27 7.1,-0.23 3.1,0.047 4.7,0.16 6.1,-1.6 1.2,-1.4 0.49,-2.5 -0.44,-2.7 -0.57,-0.11 -18,-0.32 -36,-0.6 -4.7,-0.074 -24,-0.25 -42,-0.39 -18,-0.14 -42,-0.37 -52,-0.51 -10,-0.14 -22,-0.26 -27,-0.28 -12,-0.039 -31,-0.55 -32,-0.78 -0.93,-0.28 36,-0.4 38,-0.56 0.8,-0.07 7.4,-0.1 18,-0.25 12,-0.17 18,-0.33 22,-0.41 17,-0.36 38,-0.63 39,-0.51 0.12,0.076 7.4,0.018 16,-0.13 8.8,-0.15 25,-0.33 36,-0.41 11,-0.079 23,0.19 23,0.19 1.7,-0.064 2.7,-0.13 3.6,-0.66 1.8,-1.1 2.4,-2.9 2.4,-2.9 l 18,-0.01 c 0,0 -2.6,3.6 -3.2,4.4 -0.51,0.68 -1.5,2 -2.2,3 -0.71,0.95 -1.5,2.1 -1.9,2.5 -2,2.3 -5.8,9.6 -6.1,12 -0.28,2 1.1,3.8 3.2,4.1 0.96,0.16 4,-0.44 5.8,-1.2 3,-1.2 8,-5.2 10,-8.1 1.4,-2 4.8,-6.6 5.9,-8.1 0.5,-0.68 2.8,-3.7 3.5,-4.7 2.9,-3.9 4.9,-6.6 6,-8.2 3.2,-4.4 10,-14 10,-14 h 18 c 0,0 -6.5,9.5 -10,14 -2.8,3.5 -4.4,5.7 -6.3,8.2 -3.6,4.9 -5,6.9 -7.7,10 -1.2,1.5 -2.5,3.1 -2.9,3.6 -0.84,1.1 -6.9,7.9 -9.5,11 -4.9,5 -8.2,6.4 -15,9.8 -5.2,2.7 -8.2,3.7 -13,4.6 -2,0.4 -3.9,0.53 -6.6,0.092 z"
       id="path11"
       style="fill:#0015ff;fill-opacity:1" />
  </g>
</svg>
